# Blender 4.2.0
# www.blender.org
mtllib cube.mtl
o Cube
v 1.000000 1.000000 -1.000000 0.0000 1.0000 0.1646
v 1.000000 -1.000000 -1.000000 0.4196 0.4196 1.0000
v 1.000000 1.000000 1.000000 0.9019 0.6706 0.1647
v 1.000000 -1.000000 1.000000 1.0000 0.0118 0.5647
v -1.000000 1.000000 -1.000000 0.9996 0.9839 0.0005
v -1.000000 -1.000000 -1.000000 0.0353 0.0353 1.0000
v -1.000000 1.000000 1.000000 0.9490 0.6079 0.0745
v -1.000000 -1.000000 1.000000 1.0000 0.0078 0.5647
vn -0.0000 1.0000 -0.0000
vn -0.0000 -0.0000 1.0000
vn -1.0000 -0.0000 -0.0000
vn -0.0000 -1.0000 -0.0000
vn 1.0000 -0.0000 -0.0000
vn -0.0000 -0.0000 -1.0000
vt 0.594785 0.979123
vt 0.401254 0.979123
vt 0.401254 -0.020789
vt 0.594785 -0.020789
vt 0.000084 0.000000
vt 0.194388 0.005208
vt 0.194892 1.003906
vt 0.000588 0.998698
vt 0.375000 0.000000
vt 0.625000 0.000000
vt 0.625000 0.250000
vt 0.375000 0.250000
vt 0.125000 0.500000
vt 0.375000 0.500000
vt 0.375000 0.750000
vt 0.125000 0.750000
vt 0.200831 0.007037
vt 0.394282 0.000911
vt 0.394124 1.004232
vt 0.200831 1.008882
vt 0.625000 0.500000
s 0
usemtl Material.002
f 8/9/3 7/10/3 5/11/3 6/12/3
f 6/13/4 2/14/4 4/15/4 8/16/4
f 6/12/6 5/11/6 1/21/6 2/14/6
usemtl Material.001
f 1/1/1 5/2/1 7/3/1 3/4/1
f 4/5/2 3/6/2 7/7/2 8/8/2
f 2/17/5 1/18/5 3/19/5 4/20/5
